Coordinates
version=1
nRows=26
nColumns=24
inDegrees=yes

Units are S.I. units (second, meters, Newtons, ...)
Angles are in degrees.

endheader
time	pelvis_tilt	pelvis_list	pelvis_rotation	pelvis_tx	pelvis_ty	pelvis_tz	hip_flexion_r	hip_adduction_r	hip_rotation_r	knee_angle_r	ankle_angle_r	subtalar_angle_r	mtp_angle_r	hip_flexion_l	hip_adduction_l	hip_rotation_l	knee_angle_l	ankle_angle_l	subtalar_angle_l	mtp_angle_l	lumbar_extension	lumbar_bending	lumbar_rotation
      1.31300000	      4.17966848	      5.28878669	     -2.71796373	      0.18897693	      0.91649222	      0.35889958	      8.84672851	     -9.84453930	    -10.84527844	    -71.37111075	     -2.78825017	      5.58435592	      9.68249210	      4.18712669	      9.73757777	     -5.14010384	    -16.04002222	      9.23479540	     -8.21664734	      5.09887237	    -11.88264672	     -8.71358006	      2.82621791
      1.31716667	      4.11470477	      5.14976125	     -2.49888545	      0.19403407	      0.91730332	      0.35845391	      9.55914273	     -9.63570465	    -10.91121630	    -71.21465368	     -1.98889029	      5.75406398	      9.55701428	      3.65175281	      9.64979554	     -4.80380907	    -15.57598222	      9.24960385	     -8.24333473	      5.09734381	    -11.86507255	     -8.51136367	      2.57576068
      1.32133333	      4.06631900	      5.00100049	     -2.27238155	      0.19907336	      0.91813371	      0.35799921	     10.23361959	     -9.41461454	    -10.97891941	    -70.97575502	     -1.22575567	      5.94419221	      9.44617023	      3.09592775	      9.54856874	     -4.46212618	    -15.10255067	      9.25930262	     -8.26923605	      5.09256799	    -11.86703078	     -8.29969045	      2.32294877
      1.32550000	      4.01593176	      4.83029125	     -2.03539764	      0.20407756	      0.91895183	      0.35755315	     10.89089246	     -9.15571460	    -11.03968724	    -70.65475615	     -0.48520594	      6.06691385	      9.39389284	      2.56408149	      9.40937539	     -4.16823768	    -14.67137837	      9.26033612	     -8.23129811	      5.08908549	    -11.88390848	     -8.04498476	      2.15037076
      1.32966667	      4.00093460	      4.66369180	     -1.79002344	      0.20909290	      0.91981196	      0.35707578	     11.48447388	     -8.91311343	    -11.10761865	    -70.25464895	      0.21781341	      6.31464725	      9.32495288	      1.96871425	      9.28177338	     -3.80741611	    -14.18596651	      9.25982176	     -8.25869956	      5.08127089	    -11.93380098	     -7.80622048	      1.87613285
      1.33383333	      3.98774840	      4.48385702	     -1.54586644	      0.21410042	      0.92066550	      0.35661636	     12.05679939	     -8.64815673	    -11.16788162	    -69.77290854	      0.87516886	      6.49885231	      9.26865794	      1.37450881	      9.13038701	     -3.47492145	    -13.70248427	      9.24669059	     -8.26550172	      5.07255242	    -11.97197656	     -7.55519978	      1.63946043
      1.33800000	      4.02831633	      4.32609085	     -1.30217051	      0.21913734	      0.92157051	      0.35611525	     12.54767178	     -8.42758186	    -11.23604314	    -69.22036852	      1.46606885	      6.75320824	      9.15944386	      0.68047904	      9.01404376	     -3.06433279	    -13.12946694	      9.22343397	     -8.38525646	      5.05197279	    -12.05713241	     -7.32345012	      1.27733524
      1.34216667	      4.05673112	      4.14080201	     -1.04589644	      0.22412366	      0.92244482	      0.35563248	     13.03097863	     -8.16209995	    -11.30020307	    -68.58741498	      2.04928870	      6.92656770	      9.04054401	      0.02975958	      8.85150508	     -2.69386221	    -12.61235816	      9.18005199	     -8.45576469	      5.02594418	    -12.14591813	     -7.06550120	      1.00058378
      1.34633333	      4.07293991	      3.93241891	     -0.78723350	      0.22907011	      0.92327393	      0.35517829	     13.51095473	     -7.85961606	    -11.35154642	    -67.88071061	      2.61425885	      7.07568749	      8.97677664	     -0.57365813	      8.64481981	     -2.40128441	    -12.15870383	      9.16581682	     -8.42355112	      5.00981775	    -12.23321062	     -6.77050394	      0.82073675
      1.35050000	      4.14873933	      3.73924525	     -0.53561492	      0.23404987	      0.92415879	      0.35470741	     13.90102963	     -7.58950158	    -11.41164168	    -67.10171380	      3.11756637	      7.23329004	      8.89287804	     -1.27905900	      8.45891655	     -2.06238694	    -11.62606306	      9.15171411	     -8.43791374	      4.98736889	    -12.36951165	     -6.49198576	      0.54827775
      1.35466667	      4.21824849	      3.55914062	     -0.28532586	      0.23900623	      0.92499532	      0.35423989	     14.28545662	     -7.33387023	    -11.46349892	    -66.26521767	      3.61162989	      7.31885905	      8.74106757	     -1.97802197	      8.28394706	     -1.71291529	    -11.07881236	      9.06275850	     -8.53426633	      4.94301413	    -12.48812508	     -6.23419468	      0.23381129
      1.35883333	      4.26973687	      3.33383329	     -0.02544966	      0.24392328	      0.92578231	      0.35379401	     14.66424332	     -7.01615942	    -11.51087882	    -65.34136698	      4.06263574	      7.41964505	      8.69076536	     -2.60423487	      8.03787515	     -1.46107800	    -10.64105796	      9.08294191	     -8.46216164	      4.92808325	    -12.60339706	     -5.91316252	      0.09825427
      1.36300000	      4.39689533	      3.13736995	      0.21636747	      0.24887772	      0.92662923	      0.35334569	     14.94108882	     -6.74423514	    -11.56053482	    -64.35934453	      4.43711466	      7.46477474	      8.60822980	     -3.36507069	      7.82768047	     -1.15877951	    -10.09015521	      9.08444574	     -8.44592214	      4.90388683	    -12.79663668	     -5.61953591	     -0.16965812
      1.36716667	      4.48536118	      2.92565509	      0.46802411	      0.25379667	      0.92738650	      0.35291740	     15.23938886	     -6.44235574	    -11.59517628	    -63.30589470	      4.82607418	      7.46754625	      8.53748309	     -4.04398806	      7.58696717	     -0.89823615	     -9.61253949	      9.05214616	     -8.42430307	      4.88230624	    -12.94019172	     -5.33001234	     -0.37942500
      1.37133333	      4.60699255	      2.73598579	      0.70328693	      0.25871439	      0.92812874	      0.35248410	     15.49214665	     -6.17891198	    -11.63543093	    -62.20786082	      5.14063345	      7.41716210	      8.44453501	     -4.78070383	      7.37050539	     -0.62794409	     -9.08180916	      9.03871804	     -8.41516300	      4.85591176	    -13.12428120	     -5.03650351	     -0.62868864
      1.37550000	      4.71774045	      2.53379606	      0.93931531	      0.26362097	      0.92881955	      0.35208212	     15.73290782	     -5.89123785	    -11.66292862	    -61.03616548	      5.43292501	      7.32879206	      8.36473002	     -5.48343150	      7.12873238	     -0.39638279	     -8.59279249	      9.02738843	     -8.37613892	      4.83404911	    -13.28958986	     -4.74125152	     -0.82814209
      1.37966667	      4.83494887	      2.33972463	      1.17201288	      0.26851943	      0.92946681	      0.35168659	     15.94943617	     -5.61170890	    -11.68279954	    -59.80870298	      5.68826106	      7.18498382	      8.27865079	     -6.19108567	      6.89019679	     -0.17248391	     -8.10061935	      9.00998287	     -8.33646301	      4.81209304	    -13.46224452	     -4.45513303	     -1.03836053
      1.38383333	      4.95007744	      2.14939980	      1.39740994	      0.27341988	      0.93005632	      0.35130173	     16.15045998	     -5.33590332	    -11.69516975	    -58.52438034	      5.90361867	      6.99175325	      8.19240712	     -6.89007869	      6.65053396	      0.03014549	     -7.61830535	      9.00147045	     -8.28260111	      4.79212919	    -13.62838319	     -4.17146395	     -1.23487552
      1.38800000	      5.04850622	      1.95791654	      1.62233826	      0.27830289	      0.93057507	      0.35094221	     16.34969606	     -5.05298099	    -11.69756909	    -57.17805666	      6.10589361	      6.76249116	      8.12782076	     -7.54438924	      6.40092269	      0.18881876	     -7.18447515	      8.98537856	     -8.20863363	      4.77953845	    -13.76904906	     -3.88593160	     -1.39533393
      1.39216667	      5.16547304	      1.77955771	      1.83532704	      0.28320152	      0.93105854	      0.35059461	     16.51251863	     -4.78545903	    -11.69239525	    -55.78347654	      6.23173902	      6.45881675	      8.05654109	     -8.23537321	      6.16299311	      0.35119745	     -6.71397327	      8.98796659	     -8.12712909	      4.76851961	    -13.93665501	     -3.61848201	     -1.57948789
      1.39633333	      5.27347718	      1.60707012	      2.04289498	      0.28810426	      0.93146892	      0.35025629	     16.66707582	     -4.52310404	    -11.67947483	    -54.33884698	      6.33390702	      6.11682303	      7.98640976	     -8.90757808	      5.92804488	      0.49880796	     -6.26188716	      8.98939394	     -8.04226612	      4.76008218	    -14.08611247	     -3.35290482	     -1.75310428
      1.40050000	      5.38684874	      1.45551472	      2.23627605	      0.29300644	      0.93181573	      0.34994127	     16.80441280	     -4.28140680	    -11.64869825	    -52.85591126	      6.36781072	      5.71138325	      7.89105847	     -9.59627423	      5.71445540	      0.64997786	     -5.78476642	      9.01054529	     -7.95265025	      4.75171817	    -14.24497663	     -3.11925962	     -1.94834235
      1.40466667	      5.47854861	      1.30095385	      2.43128866	      0.29791391	      0.93208335	      0.34962924	     16.94026800	     -4.03493046	    -11.61486318	    -51.31386969	      6.39223089	      5.27863410	      7.79992541	    -10.23801079	      5.49267190	      0.76558374	     -5.35414370	      9.02643789	     -7.84986234	      4.74716511	    -14.37332274	     -2.87831838	     -2.11041565
      1.40883333	      5.55338859	      1.14978941	      2.62861724	      0.30282494	      0.93227626	      0.34932888	     17.07194639	     -3.78996122	    -11.57764221	    -49.71819129	      6.39630907	      4.81801227	      7.72283200	    -10.84344443	      5.26951602	      0.85220920	     -4.95783060	      9.03468119	     -7.73505971	      4.74654335	    -14.47226540	     -2.63337569	     -2.25623331
      1.41300000	      5.63756825	      1.01866492	      2.80680304	      0.30775223	      0.93240541	      0.34905617	     17.18211339	     -3.56383653	    -11.52230578	    -48.09223058	      6.32733244	      4.29051420	      7.62540875	    -11.47656047	      5.06865844	      0.94812424	     -4.52906398	      9.07859089	     -7.60110670	      4.75013114	    -14.59337478	     -2.42553201	     -2.42345108
      1.41716667	      5.68404407	      0.88062443	      2.99725751	      0.31270391	      0.93243278	      0.34875982	     17.30442756	     -3.33761632	    -11.48532137	    -46.41342346	      6.27789698	      3.77595033	      7.54669295	    -12.03721641	      4.85658784	      0.99824342	     -4.16350152	      9.10073946	     -7.47370152	      4.75539303	    -14.65798910	     -2.20115870	     -2.56264975
